<svg width="70" height="70" viewBox="0 0 70 70" fill="none" xmlns="http://www.w3.org/2000/svg">
<rect width="70" height="70" rx="15" fill="#CE82FF"/>
<path opacity="0.4" d="M50 18.3333V38.5C50 41.6667 48.3333 43.3333 45.1667 43.3333H24.8333C21.6667 43.3333 20 41.6667 20 38.5V18.3333H50Z" fill="white"/>
<path d="M51.6666 19.5833H18.3333C17.6499 19.5833 17.0833 19.0167 17.0833 18.3333C17.0833 17.65 17.6499 17.0833 18.3333 17.0833H51.6666C52.3499 17.0833 52.9166 17.65 52.9166 18.3333C52.9166 19.0167 52.3499 19.5833 51.6666 19.5833Z" fill="white"/>
<path d="M42.7833 52.2333C42.5666 52.6667 42.1166 52.9167 41.6666 52.9167C41.4833 52.9167 41.2833 52.8667 41.1166 52.7834L35 49.7333L28.8833 52.7834C28.7166 52.8667 28.5166 52.9167 28.3333 52.9167C27.8833 52.9167 27.4333 52.6667 27.2166 52.2333C26.8999 51.6 27.15 50.85 27.7833 50.55L33.75 47.5667V43.3333H36.25V47.5667L42.2166 50.55C42.8499 50.85 43.1 51.6 42.7833 52.2333Z" fill="white"/>
<path d="M27.5 34.5833C27.15 34.5833 26.7833 34.4333 26.5333 34.1333C26.0833 33.6 26.1666 32.8167 26.6999 32.3667L31.95 27.9833C32.4333 27.5833 33.0499 27.4167 33.6333 27.5167C34.2333 27.6167 34.75 27.9833 35.0666 28.5166L36.8166 31.4333L41.6999 27.3667C42.2333 26.9167 43.0166 27 43.4666 27.5333C43.9166 28.0666 43.8333 28.85 43.3 29.3L38.0499 33.6833C37.5666 34.0833 36.95 34.25 36.3666 34.15C35.7666 34.05 35.2499 33.6833 34.9333 33.15L33.1833 30.2333L28.3 34.3C28.0666 34.4833 27.7833 34.5833 27.5 34.5833Z" fill="white"/>
</svg>
