<svg width="70" height="70" viewBox="0 0 70 70" fill="none" xmlns="http://www.w3.org/2000/svg">
<rect width="70" height="70" rx="15" fill="#1CB0F6"/>
<path d="M47.2833 23.15L37.5166 18.8C36.0833 18.1667 33.9166 18.1667 32.4833 18.8L22.7166 23.15C20.25 24.25 19.8833 25.75 19.8833 26.55C19.8833 27.35 20.25 28.85 22.7166 29.95L32.4833 34.3C33.2 34.6167 34.1 34.7833 35 34.7833C35.9 34.7833 36.8 34.6167 37.5166 34.3L47.2833 29.95C49.75 28.85 50.1166 27.35 50.1166 26.55C50.1166 25.75 49.7666 24.25 47.2833 23.15Z" fill="white"/>
<path opacity="0.4" d="M35 43.4C34.3667 43.4 33.7334 43.2667 33.15 43.0167L21.9167 38.0167C20.2 37.25 18.8667 35.2 18.8667 33.3167C18.8667 32.6333 19.4167 32.0833 20.1 32.0833C20.7834 32.0833 21.3334 32.6333 21.3334 33.3167C21.3334 34.2167 22.0834 35.3833 22.9167 35.75L34.15 40.75C34.6834 40.9833 35.3 40.9833 35.8334 40.75L47.0667 35.75C47.9 35.3833 48.65 34.2333 48.65 33.3167C48.65 32.6333 49.2 32.0833 49.8834 32.0833C50.5667 32.0833 51.1167 32.6333 51.1167 33.3167C51.1167 35.1833 49.7834 37.25 48.0667 38.0167L36.8334 43.0167C36.2667 43.2667 35.6334 43.4 35 43.4Z" fill="white"/>
<path opacity="0.4" d="M35 51.6667C34.3667 51.6667 33.7334 51.5333 33.15 51.2833L21.9167 46.2833C20.0667 45.4667 18.8667 43.6167 18.8667 41.5833C18.8667 40.9 19.4167 40.35 20.1 40.35C20.7834 40.35 21.3334 40.9 21.3334 41.5833C21.3334 42.6333 21.95 43.5833 22.9167 44.0167L34.15 49.0167C34.6834 49.25 35.3 49.25 35.8334 49.0167L47.0667 44.0167C48.0167 43.6 48.65 42.6333 48.65 41.5833C48.65 40.9 49.2 40.35 49.8834 40.35C50.5667 40.35 51.1167 40.9 51.1167 41.5833C51.1167 43.6167 49.9167 45.45 48.0667 46.2833L36.8334 51.2833C36.2667 51.5333 35.6334 51.6667 35 51.6667Z" fill="white"/>
</svg>
