<svg width="25" height="25" viewBox="0 0 25 25" fill="none" xmlns="http://www.w3.org/2000/svg">
<path opacity="0.4" d="M16.8645 2.08334H8.13533C4.34367 2.08334 2.08325 4.34376 2.08325 8.13543V16.8542C2.08325 20.6563 4.34367 22.9167 8.13533 22.9167H16.8541C20.6458 22.9167 22.9062 20.6563 22.9062 16.8646V8.13543C22.9166 4.34376 20.6562 2.08334 16.8645 2.08334Z" fill="#58CC02"/>
<path d="M19.3021 11.9479L14.8333 7.47916C14.5312 7.17707 14.0312 7.17707 13.7292 7.47916C13.4271 7.78124 13.4271 8.28124 13.7292 8.58332L16.8646 11.7187H6.25C5.82292 11.7187 5.46875 12.0729 5.46875 12.5C5.46875 12.9271 5.82292 13.2812 6.25 13.2812H16.8646L13.7292 16.4167C13.4271 16.7187 13.4271 17.2187 13.7292 17.5208C13.8854 17.6771 14.0833 17.75 14.2812 17.75C14.4792 17.75 14.6771 17.6771 14.8333 17.5208L19.3021 13.0521C19.4479 12.9062 19.5312 12.7083 19.5312 12.5C19.5312 12.2917 19.4479 12.0937 19.3021 11.9479Z" fill="#58CC02"/>
</svg>
