<svg width="70" height="70" viewBox="0 0 70 70" fill="none" xmlns="http://www.w3.org/2000/svg">
<rect width="70" height="70" rx="15" fill="#FFC800"/>
<path d="M37.3833 40H22.3333C19.3 40 17.3667 36.75 18.8333 34.0834L22.7167 27.0167L26.35 20.4C27.8667 17.65 31.8333 17.65 33.35 20.4L37 27.0167L38.75 30.2L40.8833 34.0834C42.35 36.75 40.4167 40 37.3833 40Z" fill="white"/>
<path opacity="0.4" d="M51.6667 40.8333C51.6667 46.8167 46.8167 51.6667 40.8333 51.6667C34.85 51.6667 30 46.8167 30 40.8333C30 40.55 30.0167 40.2833 30.0333 40H37.3833C40.4167 40 42.35 36.75 40.8833 34.0834L38.75 30.2C39.4167 30.0667 40.1167 30 40.8333 30C46.8167 30 51.6667 34.85 51.6667 40.8333Z" fill="white"/>
</svg>
