<svg width="70" height="70" viewBox="0 0 70 70" fill="none" xmlns="http://www.w3.org/2000/svg">
<rect width="70" height="70" rx="15" fill="#58CC02"/>
<path opacity="0.6" d="M38.3333 41.6667C38.3333 44.6167 37.0499 47.2833 34.9999 49.1C33.2333 50.7 30.8999 51.6667 28.3333 51.6667C22.8166 51.6667 18.3333 47.1833 18.3333 41.6667C18.3333 37.0667 21.4666 33.1667 25.6999 32.0167C26.8499 34.9167 29.3166 37.15 32.3666 37.9833C33.1999 38.2167 34.0833 38.3333 34.9999 38.3333C35.9166 38.3333 36.7999 38.2167 37.6333 37.9833C38.0833 39.1167 38.3333 40.3667 38.3333 41.6667Z" fill="white"/>
<path d="M45 28.3333C45 29.6333 44.75 30.8833 44.3 32.0167C43.15 34.9167 40.6833 37.15 37.6333 37.9833C36.8 38.2167 35.9167 38.3333 35 38.3333C34.0833 38.3333 33.2 38.2167 32.3667 37.9833C29.3167 37.15 26.85 34.9167 25.7 32.0167C25.25 30.8833 25 29.6333 25 28.3333C25 22.8167 29.4833 18.3333 35 18.3333C40.5167 18.3333 45 22.8167 45 28.3333Z" fill="white"/>
<path opacity="0.4" d="M51.6667 41.6667C51.6667 47.1833 47.1833 51.6667 41.6667 51.6667C39.1 51.6667 36.7667 50.7 35 49.1C37.05 47.2833 38.3333 44.6167 38.3333 41.6667C38.3333 40.3667 38.0833 39.1167 37.6333 37.9833C40.6833 37.15 43.15 34.9167 44.3 32.0167C48.5333 33.1667 51.6667 37.0667 51.6667 41.6667Z" fill="white"/>
</svg>
