<svg width="25" height="25" viewBox="0 0 25 25" fill="none" xmlns="http://www.w3.org/2000/svg">
<path d="M21.9583 8.93754V16.0625C21.9583 17.2292 21.3333 18.3125 20.3229 18.9063L14.1354 22.4792C13.125 23.0625 11.875 23.0625 10.8542 22.4792L4.66667 18.9063C3.65625 18.323 3.03125 17.2396 3.03125 16.0625V8.93754C3.03125 7.77087 3.65625 6.68749 4.66667 6.09374L10.8542 2.52084C11.8646 1.9375 13.1146 1.9375 14.1354 2.52084L20.3229 6.09374C21.3333 6.68749 21.9583 7.76045 21.9583 8.93754Z" stroke="#292D32" stroke-width="1.5" stroke-linecap="round" stroke-linejoin="round"/>
<path d="M12.4998 11.4583C13.8403 11.4583 14.9269 10.3717 14.9269 9.03123C14.9269 7.69079 13.8403 6.60419 12.4998 6.60419C11.1594 6.60419 10.0728 7.69079 10.0728 9.03123C10.0728 10.3717 11.1594 11.4583 12.4998 11.4583Z" stroke="#292D32" stroke-width="1.5" stroke-linecap="round" stroke-linejoin="round"/>
<path d="M16.6666 17.3541C16.6666 15.4791 14.802 13.9584 12.4999 13.9584C10.1978 13.9584 8.33325 15.4791 8.33325 17.3541" stroke="#292D32" stroke-width="1.5" stroke-linecap="round" stroke-linejoin="round"/>
</svg>
